# MagicaVoxel @ Ephtracy

# group
o 

# material
mtllib lampose.mtl
usemtl palette

# normals
vn -1 0 0
vn 1 0 0
vn 0 0 1
vn 0 0 -1
vn 0 -1 0
vn 0 1 0

# texcoords
vt 0.0136719 0.5
vt 0.365234 0.5
vt 0.369141 0.5
vt 0.373047 0.5
vt 0.982422 0.5
vt 0.986328 0.5

# verts
v -2.2 7.1 0.2
v -2.2 7.1 -0.2
v -2.2 7.3 0.2
v -2.2 7.3 -0.2
v -2.2 7.4 0.2
v -2.2 7.4 -0.2
v -0.3 7.2 0.3
v -0.3 7.2 -0.3
v -0.3 7.3 0.1
v -0.3 7.3 -0.1
v -0.3 7.4 0.1
v -0.3 7.4 -0.1
v -0.3 7.5 0.3
v -0.3 7.5 -0.3
v -0.2 0 0.2
v -0.2 0 -0.2
v -0.2 0.1 0.2
v -0.2 0.1 0.1
v -0.2 0.2 -0.1
v -0.2 0.2 -0.2
v -0.2 1 0.2
v -0.2 1 0.1
v -0.2 1.8 -0.1
v -0.2 1.8 -0.2
v -0.2 2.3 -0.1
v -0.2 2.3 -0.2
v -0.2 5.1 -0.1
v -0.2 5.1 -0.2
v -0.2 5.9 0.2
v -0.2 5.9 -2.98023e-08
v -0.2 7 0.2
v -0.2 7 -2.98023e-08
v -0.2 7.2 0.2
v -0.2 7.2 -0.2
v -0.2 7.5 0.2
v -0.2 7.5 -0.2
v -0.2 7.6 0.2
v -0.2 7.6 -0.2
v 1.3 7.1 0.2
v 1.3 7.1 -0.2
v 1.3 7.3 0.2
v 1.3 7.3 0.1
v 1.3 7.3 -0.1
v 1.3 7.3 -0.2
v 1.3 7.4 0.2
v 1.3 7.4 0.1
v 1.3 7.4 -0.1
v 1.3 7.4 -0.2
v -1.3 7.1 0.2
v -1.3 7.1 -0.2
v -1.3 7.3 0.2
v -1.3 7.3 0.1
v -1.3 7.3 -0.1
v -1.3 7.3 -0.2
v -1.3 7.4 0.2
v -1.3 7.4 0.1
v -1.3 7.4 -0.1
v -1.3 7.4 -0.2
v 0.2 0 0.2
v 0.2 0 -0.2
v 0.2 0.1 0.1
v 0.2 0.1 -0.1
v 0.2 0.5 0.2
v 0.2 0.5 0.1
v 0.2 2 0.2
v 0.2 2 0.1
v 0.2 2.7 0.1
v 0.2 2.7 -0.1
v 0.2 3.4 0.2
v 0.2 3.4 0.1
v 0.2 5.2 0.2
v 0.2 5.2 0.1
v 0.2 5.9 -0.1
v 0.2 5.9 -0.2
v 0.2 7 -0.1
v 0.2 7 -0.2
v 0.2 7.2 0.2
v 0.2 7.2 -0.2
v 0.2 7.5 0.2
v 0.2 7.5 -0.2
v 0.2 7.6 0.2
v 0.2 7.6 -0.2
v 0.3 7.2 0.3
v 0.3 7.2 -0.3
v 0.3 7.3 0.1
v 0.3 7.3 -0.1
v 0.3 7.4 0.1
v 0.3 7.4 -0.1
v 0.3 7.5 0.3
v 0.3 7.5 -0.3
v 2.2 7.1 0.2
v 2.2 7.1 -0.2
v 2.2 7.3 0.2
v 2.2 7.3 -0.2
v 2.2 7.4 0.2
v 2.2 7.4 -0.2
v -0.3 7.2 0.3
v -0.3 7.5 0.3
v 0.3 7.2 0.3
v 0.3 7.5 0.3
v -2.2 7.1 0.2
v -2.2 7.3 0.2
v -2.2 7.4 0.2
v -1.3 7.1 0.2
v -1.3 7.3 0.2
v -1.3 7.4 0.2
v -0.2 0 0.2
v -0.2 0.1 0.2
v -0.2 1 0.2
v -0.2 5.9 0.2
v -0.2 7 0.2
v -0.2 7.2 0.2
v -0.2 7.5 0.2
v -0.2 7.6 0.2
v -0.0999999 0.1 0.2
v -0.0999999 1 0.2
v -0.0999999 5.9 0.2
v -0.0999999 7 0.2
v 0 0.5 0.2
v 0 2 0.2
v 0 3.4 0.2
v 0 5.2 0.2
v 0.2 0 0.2
v 0.2 0.5 0.2
v 0.2 2 0.2
v 0.2 3.4 0.2
v 0.2 5.2 0.2
v 0.2 7.2 0.2
v 0.2 7.5 0.2
v 0.2 7.6 0.2
v 1.3 7.1 0.2
v 1.3 7.3 0.2
v 1.3 7.4 0.2
v 2.2 7.1 0.2
v 2.2 7.3 0.2
v 2.2 7.4 0.2
v -1.3 7.3 0.1
v -1.3 7.4 0.1
v -0.3 7.3 0.1
v -0.3 7.4 0.1
v 0.3 7.3 0.1
v 0.3 7.4 0.1
v 1.3 7.3 0.1
v 1.3 7.4 0.1
v -1.3 7.3 -0.1
v -1.3 7.4 -0.1
v -0.3 7.3 -0.1
v -0.3 7.4 -0.1
v 0.3 7.3 -0.1
v 0.3 7.4 -0.1
v 1.3 7.3 -0.1
v 1.3 7.4 -0.1
v -2.2 7.1 -0.2
v -2.2 7.3 -0.2
v -2.2 7.4 -0.2
v -1.3 7.1 -0.2
v -1.3 7.3 -0.2
v -1.3 7.4 -0.2
v -0.2 0 -0.2
v -0.2 0.2 -0.2
v -0.2 1.8 -0.2
v -0.2 2.3 -0.2
v -0.2 5.1 -0.2
v -0.2 7.2 -0.2
v -0.2 7.5 -0.2
v -0.2 7.6 -0.2
v 0 0.2 -0.2
v 0 1.8 -0.2
v 0 2.3 -0.2
v 0 5.1 -0.2
v 0.1 5.9 -0.2
v 0.1 7 -0.2
v 0.2 0 -0.2
v 0.2 5.9 -0.2
v 0.2 7 -0.2
v 0.2 7.2 -0.2
v 0.2 7.5 -0.2
v 0.2 7.6 -0.2
v 1.3 7.1 -0.2
v 1.3 7.3 -0.2
v 1.3 7.4 -0.2
v 2.2 7.1 -0.2
v 2.2 7.3 -0.2
v 2.2 7.4 -0.2
v -0.3 7.2 -0.3
v -0.3 7.5 -0.3
v 0.3 7.2 -0.3
v 0.3 7.5 -0.3
v -0.2 0 0.2
v 0.2 0 0.2
v -0.0999999 0 0.1
v 0.1 0 0.1
v -0.0999999 0 -0.1
v 0.1 0 -0.1
v -0.2 0 -0.2
v 0.2 0 -0.2
v -2.2 7.1 0.2
v -1.3 7.1 0.2
v 1.3 7.1 0.2
v 2.2 7.1 0.2
v -2.2 7.1 -0.2
v -1.3 7.1 -0.2
v 1.3 7.1 -0.2
v 2.2 7.1 -0.2
v -0.3 7.2 0.3
v 0.3 7.2 0.3
v -0.2 7.2 0.2
v 0.2 7.2 0.2
v -0.2 7.2 -0.2
v 0.2 7.2 -0.2
v -0.3 7.2 -0.3
v 0.3 7.2 -0.3
v -1.3 7.3 0.1
v -0.3 7.3 0.1
v 0.3 7.3 0.1
v 1.3 7.3 0.1
v -1.3 7.3 -0.1
v -0.3 7.3 -0.1
v 0.3 7.3 -0.1
v 1.3 7.3 -0.1
v -2.2 7.4 0.2
v -1.3 7.4 0.2
v 1.3 7.4 0.2
v 2.2 7.4 0.2
v -1.3 7.4 0.1
v -0.3 7.4 0.1
v 0.3 7.4 0.1
v 1.3 7.4 0.1
v -1.3 7.4 -0.1
v -0.3 7.4 -0.1
v 0.3 7.4 -0.1
v 1.3 7.4 -0.1
v -2.2 7.4 -0.2
v -1.3 7.4 -0.2
v 1.3 7.4 -0.2
v 2.2 7.4 -0.2
v -0.3 7.5 0.3
v 0.3 7.5 0.3
v -0.2 7.5 0.2
v 0.2 7.5 0.2
v -0.2 7.5 -0.2
v 0.2 7.5 -0.2
v -0.3 7.5 -0.3
v 0.3 7.5 -0.3
v -0.2 7.6 0.2
v 0.2 7.6 0.2
v -0.2 7.6 -0.2
v 0.2 7.6 -0.2

# faces
f 3/1/1 2/1/1 1/1/1
f 4/1/1 2/1/1 3/1/1
f 5/5/1 4/5/1 3/5/1
f 6/5/1 4/5/1 5/5/1
f 9/6/1 8/6/1 7/6/1
f 10/6/1 8/6/1 9/6/1
f 11/6/1 9/6/1 7/6/1
f 12/6/1 8/6/1 10/6/1
f 13/6/1 11/6/1 7/6/1
f 13/6/1 12/6/1 11/6/1
f 14/6/1 8/6/1 12/6/1
f 14/6/1 12/6/1 13/6/1
f 17/3/1 16/3/1 15/3/1
f 18/3/1 16/3/1 17/3/1
f 19/3/1 16/3/1 18/3/1
f 20/3/1 16/3/1 19/3/1
f 21/2/1 18/2/1 17/2/1
f 22/3/1 19/3/1 18/3/1
f 22/2/1 18/2/1 21/2/1
f 23/2/1 20/2/1 19/2/1
f 23/3/1 19/3/1 22/3/1
f 23/3/1 22/3/1 21/3/1
f 24/2/1 20/2/1 23/2/1
f 25/3/1 23/3/1 21/3/1
f 25/3/1 24/3/1 23/3/1
f 26/3/1 24/3/1 25/3/1
f 27/3/1 25/3/1 21/3/1
f 27/2/1 26/2/1 25/2/1
f 28/2/1 26/2/1 27/2/1
f 29/3/1 27/3/1 21/3/1
f 29/3/1 28/3/1 27/3/1
f 30/3/1 28/3/1 29/3/1
f 31/2/1 30/2/1 29/2/1
f 32/3/1 28/3/1 30/3/1
f 32/2/1 30/2/1 31/2/1
f 33/3/1 32/3/1 31/3/1
f 34/3/1 28/3/1 32/3/1
f 34/3/1 32/3/1 33/3/1
f 37/3/1 36/3/1 35/3/1
f 38/3/1 36/3/1 37/3/1
f 41/1/1 40/1/1 39/1/1
f 42/1/1 40/1/1 41/1/1
f 43/1/1 40/1/1 42/1/1
f 44/1/1 40/1/1 43/1/1
f 45/5/1 42/5/1 41/5/1
f 46/5/1 42/5/1 45/5/1
f 47/5/1 44/5/1 43/5/1
f 48/5/1 44/5/1 47/5/1
f 49/1/2 50/1/2 51/1/2
f 51/1/2 50/1/2 52/1/2
f 52/1/2 50/1/2 53/1/2
f 53/1/2 50/1/2 54/1/2
f 51/5/2 52/5/2 55/5/2
f 55/5/2 52/5/2 56/5/2
f 53/5/2 54/5/2 57/5/2
f 57/5/2 54/5/2 58/5/2
f 59/3/2 60/3/2 61/3/2
f 61/3/2 60/3/2 62/3/2
f 59/3/2 61/3/2 63/3/2
f 61/2/2 62/2/2 64/2/2
f 63/3/2 61/3/2 64/3/2
f 63/2/2 64/2/2 65/2/2
f 64/2/2 62/2/2 66/2/2
f 65/2/2 64/2/2 66/2/2
f 65/3/2 66/3/2 67/3/2
f 66/2/2 62/2/2 67/2/2
f 62/3/2 60/3/2 68/3/2
f 67/2/2 62/2/2 68/2/2
f 65/3/2 67/3/2 69/3/2
f 67/3/2 68/3/2 69/3/2
f 69/3/2 68/3/2 70/3/2
f 69/2/2 70/2/2 71/2/2
f 70/3/2 68/3/2 72/3/2
f 71/2/2 70/2/2 72/2/2
f 68/3/2 60/3/2 73/3/2
f 72/3/2 68/3/2 73/3/2
f 71/3/2 72/3/2 73/3/2
f 73/3/2 60/3/2 74/3/2
f 71/3/2 73/3/2 75/3/2
f 73/2/2 74/2/2 75/2/2
f 75/2/2 74/2/2 76/2/2
f 71/3/2 75/3/2 77/3/2
f 75/3/2 76/3/2 77/3/2
f 77/3/2 76/3/2 78/3/2
f 79/3/2 80/3/2 81/3/2
f 81/3/2 80/3/2 82/3/2
f 83/6/2 84/6/2 85/6/2
f 85/6/2 84/6/2 86/6/2
f 83/6/2 85/6/2 87/6/2
f 86/6/2 84/6/2 88/6/2
f 83/6/2 87/6/2 89/6/2
f 87/6/2 88/6/2 89/6/2
f 88/6/2 84/6/2 90/6/2
f 89/6/2 88/6/2 90/6/2
f 91/1/2 92/1/2 93/1/2
f 93/1/2 92/1/2 94/1/2
f 93/5/2 94/5/2 95/5/2
f 95/5/2 94/5/2 96/5/2
f 99/6/3 98/6/3 97/6/3
f 100/6/3 98/6/3 99/6/3
f 104/1/3 102/1/3 101/1/3
f 105/5/3 103/5/3 102/5/3
f 105/1/3 102/1/3 104/1/3
f 106/5/3 103/5/3 105/5/3
f 115/3/3 108/3/3 107/3/3
f 115/2/3 109/2/3 108/2/3
f 116/3/3 110/3/3 109/3/3
f 116/2/3 109/2/3 115/2/3
f 117/2/3 111/2/3 110/2/3
f 117/3/3 110/3/3 116/3/3
f 118/3/3 112/3/3 111/3/3
f 118/2/3 111/2/3 117/2/3
f 119/3/3 117/3/3 116/3/3
f 119/3/3 116/3/3 115/3/3
f 119/3/3 118/3/3 117/3/3
f 120/3/3 118/3/3 119/3/3
f 121/3/3 118/3/3 120/3/3
f 122/3/3 118/3/3 121/3/3
f 123/3/3 115/3/3 107/3/3
f 123/3/3 119/3/3 115/3/3
f 124/2/3 120/2/3 119/2/3
f 124/3/3 119/3/3 123/3/3
f 125/3/3 121/3/3 120/3/3
f 125/2/3 120/2/3 124/2/3
f 126/2/3 122/2/3 121/2/3
f 126/3/3 121/3/3 125/3/3
f 127/3/3 118/3/3 122/3/3
f 127/2/3 122/2/3 126/2/3
f 128/3/3 112/3/3 118/3/3
f 128/3/3 118/3/3 127/3/3
f 129/3/3 114/3/3 113/3/3
f 130/3/3 114/3/3 129/3/3
f 134/1/3 132/1/3 131/1/3
f 135/5/3 133/5/3 132/5/3
f 135/1/3 132/1/3 134/1/3
f 136/5/3 133/5/3 135/5/3
f 139/2/3 138/2/3 137/2/3
f 140/2/3 138/2/3 139/2/3
f 143/2/3 142/2/3 141/2/3
f 144/2/3 142/2/3 143/2/3
f 145/2/4 146/2/4 147/2/4
f 147/2/4 146/2/4 148/2/4
f 149/2/4 150/2/4 151/2/4
f 151/2/4 150/2/4 152/2/4
f 153/1/4 154/1/4 156/1/4
f 154/5/4 155/5/4 157/5/4
f 156/1/4 154/1/4 157/1/4
f 157/5/4 155/5/4 158/5/4
f 159/3/4 160/3/4 167/3/4
f 160/2/4 161/2/4 167/2/4
f 161/3/4 162/3/4 168/3/4
f 167/2/4 161/2/4 168/2/4
f 162/2/4 163/2/4 169/2/4
f 168/3/4 162/3/4 169/3/4
f 163/3/4 164/3/4 170/3/4
f 169/2/4 163/2/4 170/2/4
f 168/3/4 169/3/4 171/3/4
f 170/3/4 164/3/4 171/3/4
f 169/3/4 170/3/4 171/3/4
f 167/3/4 168/3/4 171/3/4
f 171/3/4 164/3/4 172/3/4
f 159/3/4 167/3/4 173/3/4
f 167/3/4 171/3/4 173/3/4
f 171/2/4 172/2/4 174/2/4
f 173/3/4 171/3/4 174/3/4
f 172/3/4 164/3/4 175/3/4
f 174/2/4 172/2/4 175/2/4
f 175/3/4 164/3/4 176/3/4
f 165/3/4 166/3/4 177/3/4
f 177/3/4 166/3/4 178/3/4
f 179/1/4 180/1/4 182/1/4
f 180/5/4 181/5/4 183/5/4
f 182/1/4 180/1/4 183/1/4
f 183/5/4 181/5/4 184/5/4
f 185/6/4 186/6/4 187/6/4
f 187/6/4 186/6/4 188/6/4
f 191/3/5 190/3/5 189/3/5
f 192/3/5 190/3/5 191/3/5
f 193/3/5 191/3/5 189/3/5
f 193/4/5 192/4/5 191/4/5
f 194/3/5 190/3/5 192/3/5
f 194/4/5 192/4/5 193/4/5
f 195/3/5 193/3/5 189/3/5
f 195/3/5 194/3/5 193/3/5
f 196/3/5 190/3/5 194/3/5
f 196/3/5 194/3/5 195/3/5
f 201/1/5 198/1/5 197/1/5
f 202/1/5 198/1/5 201/1/5
f 203/1/5 200/1/5 199/1/5
f 204/1/5 200/1/5 203/1/5
f 207/6/5 206/6/5 205/6/5
f 208/6/5 206/6/5 207/6/5
f 209/6/5 207/6/5 205/6/5
f 210/6/5 206/6/5 208/6/5
f 211/6/5 209/6/5 205/6/5
f 211/6/5 210/6/5 209/6/5
f 212/6/5 206/6/5 210/6/5
f 212/6/5 210/6/5 211/6/5
f 217/2/5 214/2/5 213/2/5
f 218/2/5 214/2/5 217/2/5
f 219/2/5 216/2/5 215/2/5
f 220/2/5 216/2/5 219/2/5
f 221/5/6 222/5/6 225/5/6
f 223/5/6 224/5/6 228/5/6
f 225/2/6 226/2/6 229/2/6
f 221/5/6 225/5/6 229/5/6
f 229/2/6 226/2/6 230/2/6
f 227/2/6 228/2/6 231/2/6
f 228/5/6 224/5/6 232/5/6
f 231/2/6 228/2/6 232/2/6
f 221/5/6 229/5/6 233/5/6
f 233/5/6 229/5/6 234/5/6
f 232/5/6 224/5/6 235/5/6
f 235/5/6 224/5/6 236/5/6
f 237/6/6 238/6/6 239/6/6
f 239/6/6 238/6/6 240/6/6
f 237/6/6 239/6/6 241/6/6
f 240/6/6 238/6/6 242/6/6
f 237/6/6 241/6/6 243/6/6
f 241/6/6 242/6/6 243/6/6
f 242/6/6 238/6/6 244/6/6
f 243/6/6 242/6/6 244/6/6
f 245/3/6 246/3/6 247/3/6
f 247/3/6 246/3/6 248/3/6
